<svg width="72" height="72" viewBox="0 0 72 72" fill="none" xmlns="http://www.w3.org/2000/svg">
<g clip-path="url(#clip0_4_17)">
<path fill-rule="evenodd" clip-rule="evenodd" d="M8 72H64C68.4183 72 72 68.4183 72 64V8C72 3.58172 68.4183 0 64 0H8C3.58172 0 0 3.58172 0 8V64C0 68.4183 3.58172 72 8 72Z" fill="#007EBB"/>
<path fill-rule="evenodd" clip-rule="evenodd" d="M58 53H49.3703V38.3017C49.3703 34.2718 47.8391 32.0198 44.6494 32.0198C41.1795 32.0198 39.3666 34.3634 39.3666 38.3017V53H31.05V25H39.3666V28.7716C39.3666 28.7716 41.8672 24.1446 47.809 24.1446C53.748 24.1446 58 27.7713 58 35.2721V53ZM21.1283 21.3336C18.2955 21.3336 16 19.0201 16 16.1668C16 13.3135 18.2955 11 21.1283 11C23.9611 11 26.2553 13.3135 26.2553 16.1668C26.2553 19.0201 23.9611 21.3336 21.1283 21.3336ZM16.834 53H25.5061V25H16.834V53Z" fill="white"/>
</g>
<defs>
<clipPath id="clip0_4_17">
<rect width="72" height="72" fill="white"/>
</clipPath>
</defs>
</svg>
