<svg width="57" height="30" viewBox="0 0 57 30" fill="none" xmlns="http://www.w3.org/2000/svg">
<path fill-rule="evenodd" clip-rule="evenodd" d="M25.6187 27V4.03492L31.9369 10.8211V12.8181H40.3005V3.72724H46.6187V27H40.3005V17.9091H31.9369V27H25.6187ZM17.6136 11.4091C17.5151 11.0075 17.3598 10.6553 17.1477 10.3522C16.9356 10.0416 16.6704 9.78027 16.3522 9.56815C16.0416 9.34845 15.678 9.18557 15.2613 9.07951C14.8522 8.96588 14.4015 8.90906 13.9091 8.90906C12.8485 8.90906 11.9431 9.16285 11.1931 9.67042C10.4507 10.178 9.88254 10.9091 9.4886 11.8636C9.10224 12.8181 8.90906 13.9697 8.90906 15.3181C8.90906 16.6818 9.09466 17.8485 9.46588 18.8181C9.83709 19.7878 10.3901 20.5303 11.125 21.0454C11.8598 21.5606 12.7727 21.8181 13.8636 21.8181C14.8257 21.8181 15.625 21.678 16.2613 21.3977C16.9053 21.1174 17.3863 20.7197 17.7045 20.2045C18.0053 19.7176 18.1639 19.1494 18.1804 18.5H13.9545V14H24.2727V17.2272C24.2727 19.3485 23.8219 21.1628 22.9204 22.6704C22.0265 24.1704 20.7916 25.3219 19.2159 26.125C17.6477 26.9204 15.8485 27.3181 13.8181 27.3181C13.6472 27.3181 13.4778 27.3154 13.3099 27.3099L2.43815 16.4382C2.41876 16.102 2.40906 15.7589 2.40906 15.4091C2.40906 13.4848 2.70072 11.7803 3.28406 10.2954C3.87497 8.81057 4.69315 7.55679 5.7386 6.53406C6.78406 5.50376 7.99239 4.72724 9.3636 4.20451C10.7348 3.67421 12.2045 3.40906 13.7727 3.40906C15.1515 3.40906 16.4318 3.60603 17.6136 3.99997C18.803 4.38633 19.8522 4.93936 20.7613 5.65906C21.678 6.37118 22.4166 7.21588 22.9772 8.19315C23.5378 9.17042 23.8788 10.2424 24 11.4091H17.6136Z" fill="#002737"/>
<line x1="28.7474" y1="1.33564" x2="36.7474" y2="10.3356" stroke="#00B2FF" stroke-width="2"/>
<line x1="0.707107" y1="20.2929" x2="9.70711" y2="29.2929" stroke="#00B2FF" stroke-width="2"/>
<circle cx="52.5" cy="15.5" r="4.5" fill="#00B2FF"/>
</svg>
